<?xml version="1.0" encoding="UTF-8" standalone="no"?>
<svg
   width="1920"
   height="831"
   viewBox="0 0 1920 831"
   fill="none"
   version="1.1"
   id="svg14"
   xmlns="http://www.w3.org/2000/svg"
   xmlnsSvg="http://www.w3.org/2000/svg">
  <defs
     id="defs14" />
  <rect
     width="1920"
     height="831"
     fill="#d9d9d9"
     id="rect1"
     x="8.8817842e-15"
     y="0" />
  <rect
     width="1920"
     height="831"
     fill="#252a34"
     fill-opacity="0.7"
     id="rect2"
     x="8.8817842e-15"
     y="0" />
  <path
     d="M 0,0 H 960 L 632.5,831 H 0 Z"
     fill="#219d80"
     fill-opacity="0.55"
     id="path2" />
  <path
     fill-rule="evenodd"
     clip-rule="evenodd"
     d="m 0,363.349 c 3.65543,-0.545 7.39512,-0.827 11.1992,-0.827 41.8053,0 75.7098,33.981 75.7098,75.71 V 828.9 h 1.2273 V 438.232 c 0,-42.419 -34.5182,-76.937 -76.9371,-76.937 -3.80297,0 -7.54243,0.277 -11.1992,0.813 z"
     fill="#219d80"
     id="path8" />
  <path
     fill-rule="evenodd"
     clip-rule="evenodd"
     d="m 0,383.439 c 3.61942,-0.739 7.36496,-1.127 11.1995,-1.127 30.8362,0 55.996,25.083 55.996,55.92 V 828.9 h 1.1506 V 438.232 c 0,-31.527 -25.6201,-57.147 -57.1466,-57.147 -3.83226,0 -7.57722,0.379 -11.1995,1.1 z"
     fill="#219d80"
     id="path9" />
  <path
     fill-rule="evenodd"
     clip-rule="evenodd"
     d="m 0,343.383 c 3.67379,-0.43 7.41095,-0.652 11.1992,-0.652 52.6977,0 95.4998,42.803 95.4998,95.501 V 828.9 h 1.228 V 438.232 c 0,-53.312 -43.4164,-96.651 -96.7278,-96.651 -3.78736,0 -7.52443,0.219 -11.1992,0.644 z"
     fill="#219d80"
     id="path10" />
  <path
     fill-rule="evenodd"
     clip-rule="evenodd"
     d="m 0,323.48 c 3.68546,-0.357 7.42123,-0.539 11.199,-0.539 63.59,0 115.291,51.7 115.291,115.29 V 828.9 h 1.15 V 438.231 C 127.64,374.028 75.4027,321.79 11.199,321.79 7.42182,321.79 3.6861,321.971 0,322.324 Z"
     fill="#219d80"
     id="path11" />
  <path
     fill-rule="evenodd"
     clip-rule="evenodd"
     d="m 0,303.61 c 3.69332,-0.304 7.42828,-0.459 11.1988,-0.459 74.4825,0 135.0812,60.598 135.0812,135.081 V 828.9 h 1.15 V 438.232 C 147.43,363.135 86.3716,302 11.1988,302 7.42871,302 3.69378,302.154 0,302.456 Z"
     fill="#219d80"
     id="path12" />
  <path
     d="M 1920,831 V 590 l -43.05,42.974 c -19.13,19.145 -19.13,50.188 0,69.334 l 1.04,1.005 c 2.61,2.602 2.61,6.833 0,9.469 -2.64,2.602 -6.87,2.602 -9.47,0 l -57.7,-57.645 c -9.07,-9.053 -23.79,-9.053 -32.85,0 -9.09,9.053 -9.09,23.759 0,32.811 l 83.25,83.208 c 2.47,2.428 2.47,6.382 0,8.844 -2.43,2.428 -6.38,2.428 -8.85,0 l -56.2,-56.188 c -16.08,-16.024 -42.08,-16.024 -58.12,0 -16.07,16.024 -16.07,42.037 0,58.061 l 36.76,36.731 -22.25,3.052 -101.02,-100.931 c -11.5,-11.515 -30.17,-11.515 -41.7,0 -11.49,11.515 -11.49,30.175 0,41.656 5.45,5.445 29.61,29.585 33.12,33.088 2.26,2.255 2.26,5.931 -0.03,8.221 l -0.11,0.104 c -2.19,2.185 -5.76,2.185 -7.95,0 l -10.45,-10.44 c -12.6,-12.591 -33.08,-12.591 -45.72,0 L 1558,831"
     fill="#f3fffd"
     fill-opacity="0.2"
     id="path14" />
</svg>
