<?xml version="1.0" encoding="UTF-8" standalone="no"?>
<svg
   width="1920"
   height="400.10001"
   viewBox="0 0 1920 400.10001"
   fill="none"
   version="1.1"
   id="svg23"
   xmlns="http://www.w3.org/2000/svg"
   xmlnsSvg="http://www.w3.org/2000/svg">
  <rect
     width="1920"
     height="400"
     fill="#d9d9d9"
     id="rect1"
     x="0"
     y="0" />
  <rect
     width="1920"
     height="400"
     fill="#252a34"
     fill-opacity="0.7"
     id="rect2"
     x="0"
     y="0" />
  <path
     d="M 0,0 H 861 L 689.248,400 H 0 Z"
     fill="#219d80"
     fill-opacity="0.55"
     id="path2" />
  <path
     fill-rule="evenodd"
     clip-rule="evenodd"
     d="M 2.44141e-4,130.524 C 2.11684,130.208 4.28222,130.045 6.48488,130.045 c 24.20722,0 43.83952,19.677 43.83952,43.839 V 400.1 H 51.035 V 173.884 c 0,-24.562 -19.9876,-44.55 -44.55012,-44.55 -2.20201,0 -4.36726,0.161 -6.484635859,0.471 z"
     fill="#219d80"
     id="path18" />
  <path
     fill-rule="evenodd"
     clip-rule="evenodd"
     d="m 6.48561,141.504 c -2.22037,0 -4.38923,0.225 -6.485060684,0.653 v -0.726 C 2.09803,141.013 4.26655,140.794 6.48561,140.794 c 18.25539,0 33.09059,14.835 33.09059,33.09 V 400.1 H 38.91 V 173.884 c 0,-17.855 -14.5688,-32.38 -32.42439,-32.38 z"
     fill="#219d80"
     id="path19" />
  <path
     fill-rule="evenodd"
     clip-rule="evenodd"
     d="M 1.2207e-4,118.962 C 2.12732,118.713 4.2912,118.585 6.48469,118.585 c 30.51441,0 55.29901,24.785 55.29901,55.299 v 226.215 h 0.7107 V 173.884 c 0,-30.87 -25.14,-55.965 -56.00971,-55.965 -2.19297,0 -4.3568,0.127 -6.48456793,0.373 z"
     fill="#219d80"
     id="path20" />
  <path
     fill-rule="evenodd"
     clip-rule="evenodd"
     d="m 0,107.438 c 2.13395,-0.207 4.29703,-0.312 6.4844,-0.312 36.8216,0 66.7586,29.937 66.7586,66.758 V 400.1 h 0.6663 V 173.884 c 0,-37.177 -30.248,-67.425 -67.4249,-67.425 -2.18703,0 -4.35008,0.105 -6.4844,0.31 z"
     fill="#219d80"
     id="path21" />
  <path
     fill-rule="evenodd"
     clip-rule="evenodd"
     d="M 1.83105e-4,95.9325 C 2.13854,95.7562 4.301,95.6663 6.48406,95.6663 c 43.12884,0 78.21814,35.0897 78.21814,78.2177 V 400.1 h 0.6663 V 173.884 C 85.3685,130.4 50.0126,95 6.48406,95 4.30125,95 2.1388,95.0892 1.83105e-4,95.2642 Z"
     fill="#219d80"
     id="path22" />
  <path
     d="M 1920,400 V 159 l -43.05,42.974 c -19.13,19.145 -19.13,50.188 0,69.334 l 1.04,1.005 c 2.61,2.602 2.61,6.833 0,9.469 -2.64,2.602 -6.87,2.602 -9.47,0 l -57.7,-57.645 c -9.07,-9.053 -23.79,-9.053 -32.85,0 -9.09,9.053 -9.09,23.759 0,32.811 l 83.25,83.208 c 2.47,2.428 2.47,6.382 0,8.844 -2.43,2.428 -6.38,2.428 -8.85,0 l -56.2,-56.188 c -16.08,-16.024 -42.08,-16.024 -58.12,0 -16.07,16.024 -16.07,42.037 0,58.061 l 36.76,36.731 -22.25,3.052 -101.02,-100.931 c -11.5,-11.515 -30.17,-11.515 -41.7,0 -11.49,11.515 -11.49,30.175 0,41.656 5.45,5.445 29.61,29.585 33.12,33.088 2.26,2.255 2.26,5.931 -0.03,8.221 l -0.11,0.104 c -2.19,2.185 -5.76,2.185 -7.95,0 l -10.45,-10.44 c -12.6,-12.591 -33.08,-12.591 -45.72,0 L 1558,400"
     fill="#f3fffd"
     fill-opacity="0.2"
     id="path23" />
  <defs
     id="defs23" />
</svg>
