<?xml version="1.0" encoding="UTF-8" standalone="no"?>
<svg
   width="1920"
   height="831"
   viewBox="0 0 1920 831"
   fill="none"
   version="1.1"
   id="svg6"
   xml:space="preserve"
   sodipodi:docname="banner.svg"
   inkscape:export-filename="banner.png"
   inkscape:export-xdpi="96"
   inkscape:export-ydpi="96"
   inkscape:version="1.3.1 (91b66b0783, 2023-11-16)"
   xmlns:inkscape="http://www.inkscape.org/namespaces/inkscape"
   xmlns:sodipodi="http://sodipodi.sourceforge.net/DTD/sodipodi-0.dtd"
   xmlns="http://www.w3.org/2000/svg"
   xmlns:svg="http://www.w3.org/2000/svg"><sodipodi:namedview
     id="namedview1"
     pagecolor="#505050"
     bordercolor="#eeeeee"
     borderopacity="1"
     inkscape:showpageshadow="0"
     inkscape:pageopacity="0"
     inkscape:pagecheckerboard="0"
     inkscape:deskcolor="#505050"
     inkscape:zoom="0.38385417"
     inkscape:cx="960"
     inkscape:cy="415.52239"
     inkscape:window-width="1366"
     inkscape:window-height="705"
     inkscape:window-x="-8"
     inkscape:window-y="-8"
     inkscape:window-maximized="1"
     inkscape:current-layer="svg6" /><defs
     id="defs6" /><rect
     width="1920"
     height="831"
     fill="#d9d9d9"
     id="rect1"
     x="0"
     y="0" /><rect
     width="1920"
     height="831"
     fill="#252a34"
     fill-opacity="0.7"
     id="rect2"
     x="0"
     y="0" /><path
     d="M 0,0 H 960 L 632.5,831 H 0 Z"
     fill="#219d80"
     fill-opacity="0.55"
     id="path2" /><g
     style="fill:none"
     id="g6"
     transform="matrix(1.1612872,0,0,1.1612872,1500.9649,552.48944)"><path
       d="M 362,241 V 0 l -43.049,42.9738 c -19.129,19.1457 -19.129,50.1881 0,69.3342 l 1.042,1.005 c 2.603,2.602 2.603,6.833 0,9.469 -2.639,2.602 -6.874,2.602 -9.478,0 L 252.816,65.137 c -9.061,-9.0526 -23.781,-9.0526 -32.842,0 -9.096,9.0526 -9.096,23.7587 0,32.8113 l 83.251,83.2077 c 2.464,2.428 2.464,6.382 0,8.844 -2.431,2.428 -6.388,2.428 -8.853,0 l -56.207,-56.188 c -16.073,-16.024 -42.076,-16.024 -58.115,0 -16.074,16.024 -16.074,42.037 0,58.061 l 36.765,36.731 -22.254,3.052 L 93.5354,130.725 c -11.4912,-11.515 -30.1689,-11.515 -41.6948,0 -11.4913,11.515 -11.4913,30.175 0,41.656 5.4505,5.445 29.6134,29.585 33.1198,33.088 2.2565,2.255 2.2565,5.931 -0.0348,8.221 l -0.1041,0.104 c -2.1872,2.185 -5.763,2.185 -7.9501,0 l -10.4498,-10.44 c -12.6022,-12.591 -33.085,-12.591 -45.7219,0 L 0,241"
       fill="#f3fffd"
       fill-opacity="0.2"
       id="path1" /></g></svg>
